<?xml version="1.0" encoding="utf-8"?>
<!-- Generator: Adobe Illustrator 28.0.0, SVG Export Plug-In . SVG Version: 6.00 Build 0)  -->
<svg version="1.1" id="Layer_1" xmlns="http://www.w3.org/2000/svg" xmlns:xlink="http://www.w3.org/1999/xlink" x="0px" y="0px"
	 viewBox="0 0 32 31.7" style="enable-background:new 0 0 32 31.7;" xml:space="preserve">
<style type="text/css">
	.st0{fill:#292541;}
</style>
<g>
	<path class="st0" d="M26.4,1.1H9.9C8.3,1.1,7,2.4,7,4v1.3H5.6C4,5.3,2.7,6.6,2.7,8.2V28c0,1.6,1.3,2.9,2.9,2.9h16.5
		c1.6,0,2.9-1.3,2.9-2.9v-1.3h1.3c1.6,0,2.9-1.3,2.9-2.9V4C29.3,2.4,28,1.1,26.4,1.1z M23.2,28c0,0.6-0.5,1.1-1.1,1.1H5.6
		c-0.6,0-1.1-0.5-1.1-1.1V8.2c0-0.6,0.5-1.1,1.1-1.1H7v16.6c0,1.6,1.3,2.9,2.9,2.9h13.3V28L23.2,28z M27.5,23.8
		c0,0.6-0.5,1.1-1.1,1.1H9.9c-0.6,0-1.1-0.5-1.1-1.1V4c0-0.6,0.5-1.1,1.1-1.1h16.5c0.6,0,1.1,0.5,1.1,1.1V23.8L27.5,23.8z"/>
	<path class="st0" d="M23.4,9.3H12.8c-0.5,0-0.9,0.4-0.9,0.9s0.4,0.9,0.9,0.9h10.6c0.5,0,0.9-0.4,0.9-0.9S23.9,9.3,23.4,9.3z"/>
	<path class="st0" d="M23.4,13H12.8c-0.5,0-0.9,0.4-0.9,0.9s0.4,0.9,0.9,0.9h10.6c0.5,0,0.9-0.4,0.9-0.9S23.9,13,23.4,13z"/>
	<path class="st0" d="M19,16.7h-6.2c-0.5,0-0.9,0.4-0.9,0.9s0.4,0.9,0.9,0.9H19c0.5,0,0.9-0.4,0.9-0.9S19.5,16.7,19,16.7z"/>
</g>
</svg>
