<?xml version="1.0" encoding="utf-8"?>
<!-- Generator: Adobe Illustrator 28.0.0, SVG Export Plug-In . SVG Version: 6.00 Build 0)  -->
<svg version="1.1" id="Layer_1" xmlns="http://www.w3.org/2000/svg" xmlns:xlink="http://www.w3.org/1999/xlink" x="0px" y="0px"
	 viewBox="0 0 64 80" style="enable-background:new 0 0 64 80;" xml:space="preserve">
<style type="text/css">
	.st0{fill-rule:evenodd;clip-rule:evenodd;fill:#E66239;}
</style>
<path class="st0" d="M32,2C15.4,2,2,15.4,2,32s13.4,30,30,30s30-13.4,30-30S48.6,2,32,2z M18,30c-1.1,0-2,0.9-2,2c0,1.1,0.9,2,2,2
	h12v12c0,1.1,0.9,2,2,2c1.1,0,2-0.9,2-2V34h12c1.1,0,2-0.9,2-2c0-1.1-0.9-2-2-2H34V18c0-1.1-0.9-2-2-2c-1.1,0-2,0.9-2,2v12H18z"/>
</svg>
