<?xml version="1.0" encoding="utf-8"?>
<!-- Generator: Adobe Illustrator 28.0.0, SVG Export Plug-In . SVG Version: 6.00 Build 0)  -->
<svg version="1.1"
	 id="Layer_1" xmlns:svg="http://www.w3.org/2000/svg" xmlns:cc="http://creativecommons.org/ns#" xmlns:rdf="http://www.w3.org/1999/02/22-rdf-syntax-ns#" xmlns:sodipodi="http://sodipodi.sourceforge.net/DTD/sodipodi-0.dtd" xmlns:inkscape="http://www.inkscape.org/namespaces/inkscape" xmlns:dc="http://purl.org/dc/elements/1.1/"
	 xmlns="http://www.w3.org/2000/svg" xmlns:xlink="http://www.w3.org/1999/xlink" x="0px" y="0px" viewBox="0 0 100 125"
	 style="enable-background:new 0 0 100 125;" xml:space="preserve">
<style type="text/css">
	.st0{fill:#07AA00;}
</style>
<g transform="translate(0,-952.36218)">
	<path class="st0" d="M49.7,966.4c-0.5,0.1-0.9,0.3-1.2,0.7l-17,20c-0.7,0.8-0.6,2.1,0.2,2.8c0.8,0.7,2.1,0.6,2.8-0.2l0,0L48,973.8
		v51.6c0,1.1,0.9,2,2,2s2-0.9,2-2c0,0,0,0,0-0.1v-51.6l13.5,15.8c0.7,0.8,2,1,2.8,0.2s1-2,0.2-2.8l0,0l-17-20
		C51.1,966.5,50.4,966.3,49.7,966.4z M49.8,1030.3c-1,0.1-1.8,1-1.8,2v4c0,1.1,0.9,2,2,2s2-0.9,2-2c0,0,0,0,0-0.1v-4
		c0-1.1-0.9-2-2-2C50,1030.3,49.9,1030.3,49.8,1030.3z"/>
</g>
</svg>
