<?xml version="1.0" encoding="utf-8"?>
<!-- Generator: Adobe Illustrator 28.0.0, SVG Export Plug-In . SVG Version: 6.00 Build 0)  -->
<svg version="1.1"
	 id="Layer_1" xmlns:svg="http://www.w3.org/2000/svg"
	 xmlns="http://www.w3.org/2000/svg" xmlns:xlink="http://www.w3.org/1999/xlink" x="0px" y="0px" viewBox="0 0 100 125"
	 style="enable-background:new 0 0 100 125;" xml:space="preserve">
<style type="text/css">
	.st0{fill:#302C4D;}
	.st1{fill:#E66239;}
</style>
<g>
	<g transform="translate(0,-952.36218)">
		<path class="st0" d="M50.8,990.4c-1.1,0.7-2.2,1.4-3.3,2.2l5.2,4.8c0.3,0.3,0.2,0.8-0.1,1c-2.8,1.9-4.8,4-5.9,6.6
			c-0.9,2.2-1.2,4.7-0.8,7.7l1.6,1.1c-1.2-7.6,3.7-11.9,9.5-14.7L50.8,990.4z M44.5,990.8c-6,4.5-7.8,10.1-6.4,18.5l7.3,5.1
			c-1.6-7.6,0.9-12.8,6.7-16.6L44.5,990.8z M60.1,993.9c-1.3,0.1-3.1,0.5-5.2,1.1l2.5,3.6c0.2,0.3,0.1,0.8-0.2,0.9
			c-2.8,1.4-5.4,3.1-7.1,5.4c-1.4,1.9-2.3,4.2-2.2,7c1.7-3.3,8-8.6,14.5-7.6L60.1,993.9z M44.7,995.5l1.1,0.6l-0.3,0.6
			c0.5,0.4,0.9,1,1,1.6c0.2,0.8-0.1,1.7-0.9,2.2c-0.3,0.2-0.7,0.1-0.9-0.2c-0.2-0.3,0-0.7,0.3-0.9c0.4-0.2,0.4-0.4,0.3-0.8
			c-0.1-0.4-0.4-0.8-0.8-1.1c-0.5-0.3-1-0.4-1.3-0.4c-0.6,0.2-0.9,0.5-0.7,1c0.7,0.8,1.5,1.4,2.2,2.2c0.4,0.6,0.5,1.3,0.2,1.9
			c-0.4,0.7-1.1,1.1-1.8,1.2c-0.5,0-0.9,0-1.4-0.2l-0.4,0.6l-1.1-0.6l0.3-0.6c-0.5-0.4-0.9-1-1-1.6c-0.2-0.8,0.1-1.7,0.9-2.2
			c0.4-0.2,0.8,0,0.9,0.4c0.1,0.3-0.1,0.6-0.3,0.8c-0.4,0.2-0.4,0.4-0.3,0.8c0.1,0.4,0.4,0.8,0.8,1.1c0.5,0.3,1,0.4,1.3,0.4
			c0.6-0.2,1-0.5,0.7-1c-0.7-0.8-1.5-1.4-2.1-2.2c-0.2-0.2-0.3-0.5-0.4-0.8c-0.1-1.2,1-2.1,2-2.2c0.5,0,0.9,0,1.4,0.2L44.7,995.5z"
			/>
	</g>
	<path class="st1" d="M44.7,43.2l-0.3,0.6c-0.4-0.2-0.9-0.2-1.3-0.2c-1.5,0.3-2.3,1.8-1.5,2.9c0.5,0.8,1.5,1.3,2.1,2.2
		c0.4,0.5-0.2,1-0.6,1c-0.3,0-0.8-0.1-1.2-0.4c-0.4-0.2-0.7-0.7-0.8-1c-0.1-0.4-0.1-0.5,0.3-0.7c0.2-0.1,0.4-0.5,0.3-0.7
		c-0.3-0.4-0.5-0.5-0.9-0.3c-0.8,0.4-1.1,1.4-0.9,2.1c0.1,0.6,0.5,1.1,1,1.5l-0.3,0.6l1.1,0.6l0.3-0.6c0.4,0.2,0.9,0.2,1.3,0.2
		c1.5-0.3,2.3-1.8,1.5-3c-0.6-0.8-1.5-1.3-2.1-2.1c-0.4-0.5,0.2-1,0.6-1c0.3,0,0.8,0.1,1.2,0.4c0.4,0.2,0.7,0.6,0.8,1
		s0.1,0.6-0.3,0.7c-0.3,0.1-0.4,0.6-0.3,0.8c0.2,0.3,0.6,0.4,0.9,0.2c0.8-0.4,1.1-1.4,0.9-2.1c-0.1-0.6-0.5-1.1-1-1.5l0.3-0.6
		L44.7,43.2z"/>
</g>
</svg>
