<?xml version="1.0" encoding="utf-8"?>
<!-- Generator: Adobe Illustrator 28.0.0, SVG Export Plug-In . SVG Version: 6.00 Build 0)  -->
<svg version="1.1"
	 id="Layer_1" xmlns:svg="http://www.w3.org/2000/svg"
	 xmlns="http://www.w3.org/2000/svg" xmlns:xlink="http://www.w3.org/1999/xlink" x="0px" y="0px" viewBox="0 0 100 125"
	 style="enable-background:new 0 0 100 125;" xml:space="preserve">
<style type="text/css">
	.st0{fill:#302C4D;}
</style>
<g transform="translate(0,-952.36218)">
	<g transform="translate(6.9910763,960.35057)">
		<path class="st0" d="M43.6,38.1c-1.2,0.7-2.5,1.5-3.6,2.5l-1.6-1.5c-0.4-0.3-0.7-0.2-1.1-0.1c-2.8,2.1-4.7,4.6-5.7,7.5
			c-1,2.9-1.1,6.2-0.4,10.1c0,0.2,0.2,0.4,0.4,0.6l6.6,4.6c0.3,0.2,0.7,0.2,1,0c0.3-0.2,0.4-0.6,0.4-0.9c-0.1-0.4-0.1-0.7-0.2-1.1
			l1.1,0.8c0.5,0.2,1.3-0.1,1.4-0.9c0.5-1.9,2.2-3.5,3.6-4.7c2.4-1.8,5.7-3.3,8.9-2.7c0.5,0.1,1.1-0.5,1-1l-2-9.5
			c-0.1-0.4-0.5-0.7-0.9-0.7c-1.3,0.1-3,0.4-4.9,1.1l-2.7-3.9C44.3,38,44,38,43.6,38.1z M43.8,40l4.5,6.4c-2.3,1.2-4.5,2.8-6.1,4.8
			c-1.4,1.9-2.2,4.3-2.2,7.1l-0.9-0.6c0-1.9,0.3-3.5,0.9-5c1-2.3,2.7-4.2,5.2-5.8c0.4-0.3,0.5-1,0.1-1.4l-4.1-3.7
			C42.1,41.1,42.9,40.5,43.8,40z M37.8,40.9l5.6,5.2c-2.2,1.7-4,3.6-5,5.9c-0.9,2.1-1.2,4.6-0.9,7.3L32.8,56
			c-0.6-3.6-0.5-6.5,0.4-8.9C34,44.7,35.5,42.8,37.8,40.9z M38.8,43.4L38.5,44c-0.4-0.2-0.8-0.2-1.2-0.2c-1.4,0.2-2.2,1.7-1.4,2.8
			c0.5,0.8,1.4,1.3,1.9,2c0.4,0.5-0.2,0.9-0.6,1c-0.3,0-0.7-0.1-1.2-0.3c-0.4-0.2-0.6-0.6-0.7-1c-0.1-0.3-0.1-0.5,0.3-0.7
			c0.2-0.1,0.4-0.4,0.3-0.7c-0.3-0.4-0.5-0.5-0.8-0.3c-0.7,0.4-1,1.3-0.8,2c0.1,0.6,0.4,1.1,0.9,1.4l-0.3,0.5l1,0.6l0.3-0.6
			c0.4,0.2,0.8,0.2,1.2,0.2c1.4-0.2,2.2-1.7,1.4-2.8c-0.5-0.8-1.4-1.2-1.9-2c-0.3-0.5,0.2-0.9,0.6-1c0.3,0,0.7,0.1,1.2,0.3
			c0.3,0.2,0.6,0.6,0.7,1c0.1,0.3,0.1,0.5-0.3,0.7c-0.3,0.1-0.4,0.5-0.3,0.8c0.1,0.3,0.5,0.4,0.8,0.2c0.8-0.4,1-1.3,0.9-2
			c-0.1-0.6-0.5-1.1-0.9-1.4l0.3-0.5L38.8,43.4z"/>
	</g>
</g>
</svg>
