<?xml version="1.0" encoding="utf-8"?>
<!-- Generator: Adobe Illustrator 28.0.0, SVG Export Plug-In . SVG Version: 6.00 Build 0)  -->
<svg version="1.1" id="Layer_1" xmlns="http://www.w3.org/2000/svg" xmlns:xlink="http://www.w3.org/1999/xlink" x="0px" y="0px"
	 viewBox="0 0 947.7 189.9" style="enable-background:new 0 0 947.7 189.9;" xml:space="preserve">
<style type="text/css">
	.st0{fill:#117ACA;}
	.st1{fill:#211E1E;}
</style>
<path class="st0" d="M828.1,7c-3.3,0-6.1,2.7-6.1,6.1v42.5h112.2L883.1,7L828.1,7 M938.3,68.4c0-3.3-2.7-6-6-6.1c0,0,0,0,0,0h-42.5
	v112.2l48.5-51.1L938.3,68.4 M876.9,178.6c3.3,0,6.1-2.7,6.1-6.1V130H770.8l51.1,48.5L876.9,178.6 M766.7,117.2
	c0,3.3,2.7,6.1,6.1,6.1h42.4V11.1l-48.5,51.1L766.7,117.2"/>
<path class="st1" d="M252.5,27.5v51.8h-72.2V27.5l-26.3,0v130.6h26.3V102h72.2v56.1h26.3V27.5H252.5 M602.2,27.5V158h115.3l-14.6-23
	h-74.4V102h72V79.8h-72V49.9h74.2l14.3-22.4L602.2,27.5 M56.3,27.4c-27.3,0-41.2,16.6-41.2,40.8V117c0,28,17.8,41.1,41,41.1l82.5,0
	l-15.3-23.9H61.3c-13.2,0-18.9-4.8-18.9-19.5V70.4c0-14.3,4.8-19.8,19.3-19.8H124l14.7-23.1L56.3,27.4 M486.9,27.4
	c-15.8,0-32,9.5-32,33.9v6.3c0,25.5,15.6,35.2,31.2,35.2h54.7c5.7,0,10.3,0.9,10.3,10.5l0,11.1c-0.1,8.6-4.4,10.6-10.5,10.6h-72
	l-14.7,23h88.4c21.3,0,35.8-10.6,35.8-35.1v-9c0-23.7-13.4-34.9-34.3-34.9h-52.2c-5.8,0-9.8-1.6-9.8-10.2v-9c0-7.3,2.8-10,9.5-10
	l68.5,0L574,27.4L486.9,27.4 M355.2,27.5l-61.9,130.6h29.3l12.1-27h67.3l12,27h29.4L381.3,27.5L355.2,27.5z M368.2,54.6l23.8,54.3
	h-47.4L368.2,54.6"/>
</svg>
