<?xml version="1.0" encoding="utf-8"?>
<!-- Generator: Adobe Illustrator 28.0.0, SVG Export Plug-In . SVG Version: 6.00 Build 0)  -->
<svg version="1.1" id="Layer_1" xmlns="http://www.w3.org/2000/svg" xmlns:xlink="http://www.w3.org/1999/xlink" x="0px" y="0px"
	 viewBox="0 0 945.2 366.7" style="enable-background:new 0 0 945.2 366.7;" xml:space="preserve">
<style type="text/css">
	.st0{fill:#003478;}
	.st1{fill:#FFFFFF;}
</style>
<path class="st0" d="M472.9,9.6C216.7,9.6,11.3,86.3,11.3,182.6c0,95.7,207,173.1,461.5,173.1c254.5,0,461.5-77.6,461.5-173.1
	S727.4,9.6,472.9,9.6"/>
<path class="st1" d="M654.7,219.3c0.1,0.8,1.2,1.6,2.2,1.9c0.4,0.1,0.6,0.4,0.2,1.2c-2.9,6.2-5.5,9.7-9.1,15.1
	c-3.3,4.9-7,8.8-11.6,12.5c-6.8,5.6-16.3,11.8-24.1,7.7c-3.5-1.8-5-6.7-4.9-10.6c0.2-11.1,5.1-22.4,14.2-33.6
	c11.1-13.7,23.4-20.7,31.4-16.9c8.3,4,5.7,13.6,1.9,21.2C654.5,218.3,654.5,218.8,654.7,219.3 M744,133c0.6-1.1,0-1.8-1.4-1.8
	c-7,0-16.1,0-23.3,0c-1.7,0-2.6,0.2-3.4,1.8c-2.7,5.1-35.3,54-41.3,63.5c-1,1.4-2.3,1.2-2.4-0.4c-0.6-5.6-5.5-12.1-13.1-15.2
	c-5.8-2.4-11.6-2.8-17.5-2c-10.7,1.4-20.3,7.1-28.7,13.5c-12.7,9.6-23.6,22.1-37.7,31.3c-7.7,5-18.2,9.4-25.3,2.9
	c-6.4-5.9-5.7-19.1,4.1-29.2c1-1.1,2.3-0.2,2.1,0.8c-0.9,4.6,0.2,9.2,3.7,12.4c4.3,3.8,10.4,4.2,15.6,1.7c6.2-3.1,9.8-8.9,10.8-15.6
	c1.6-10.4-6.4-19.5-16.3-20.3c-8.1-0.6-15.9,2.3-23.5,8.5c-3.8,3.2-6,5.5-9.2,10.2c-0.8,1.2-2,1.3-2-0.4c0.4-13.3-5.1-20.7-16.1-21
	c-8.5-0.2-17.6,4.4-24.7,10.1c-7.8,6.2-14.6,14.5-21.9,22.3c-0.9,1-1.7,0.9-2-0.9c-0.2-8.8-2.4-17.3-6.5-23.4
	c-1.4-2.1-4.5-3.1-7-1.7c-1.2,0.6-5.3,2.5-8.2,4.9c-1.5,1.2-2.1,3-1.4,5.2c3.9,13.1,3.1,28.1-2.3,40.7c-4.9,11.6-14.4,22-25.6,25.5
	c-7.4,2.3-15,1.2-19.8-5.3c-6.5-9-3.9-24.7,5.8-37.7c8.6-11.5,21-18.7,33.3-23.4c1.5-0.6,1.8-1.5,1.3-2.7c-0.7-2-1.7-4.8-2.2-6.1
	c-1.1-3-4.3-3.5-8.2-3.1c-9,1-17.1,4.1-25.1,8.4c-20.9,11.2-31.5,32.9-36.1,44.5c-2.2,5.6-4.1,9.1-6.6,12.1
	c-3.3,4.2-7.4,7.9-15,14.6c-0.7,0.6-1.2,1.9-0.6,3.1c0.8,1.6,4.7,7.2,5.8,7.7c1.2,0.6,2.7-0.2,3.2-0.7c5.3-3.6,11.7-9.3,14.8-13.2
	c1.1-1.3,2.2-0.8,2.8,1.2c2.9,10.3,10.5,18.8,21,22.3c19.2,6.5,39.1-2.9,54.2-19.2c9.6-10.4,13-17,16.7-21.6
	c6.2-7.7,18.5-24.9,33-35.9c5.3-4.1,11.7-7.2,14.9-5.1c2.6,1.7,3.4,5.5-0.7,13c-14.9,27.2-36.8,59.1-40.8,66.8
	c-0.7,1.3-0.1,2.4,1.3,2.4c7.8,0,15.5,0,22.6,0c1.2,0,1.7-0.6,2.3-1.4c11.4-17.9,22.2-34.9,33.7-52.4c0.6-1,1.2-0.2,1.3,0.2
	c0.2,4.1,1.2,9.7,3.7,13.3c4.4,6.8,10.5,9.7,17.4,9.7c5.4,0.1,8.2-0.8,14.1-3c4.8-1.8,8.6-4.1,11.6-6.2c1.7-1.2,2,0.8,2,1.1
	c-2.6,14.2,0.6,31,14.7,38c16.9,8.3,35.4-3.4,46.1-13.9c1-1,2.2-0.9,2.3,1.3c0.2,4,2,8.8,5.4,12.2c8.9,9,27,5.4,45.1-8.6
	c11.6-9,23.8-21.6,34.8-35.1c0.4-0.5,0.7-1.4-0.1-2.2c-1.7-1.8-4.1-3.8-5.7-5.3c-0.8-0.6-1.9-0.5-2.5,0c-11.3,10.7-21.4,22.9-36,33
	c-4.9,3.4-12.8,6.2-16.3,1.4c-1.4-1.9-1.2-4.4,0.1-7.8C672.9,241.9,740.5,139,744,133"/>
<path class="st1" d="M426,145.4c0.3,1.5,0.9,1.8,1.6,1.7c3.4-0.7,7.2-3.5,9.4-6.8c2-3,3-7.3,1-9c-1.8-1.5-4.7-1.1-6.9,0.8
	C426.7,135.9,425.4,141.3,426,145.4 M253.7,277.9c-25.2,0.2-47.4-15.4-50-42.4c-1.4-14.9,2.8-28.3,11.3-39.2
	c7.5-9.8,20.2-17.9,30.9-19.9c3.5-0.6,8.2-0.2,10.1,2.1c3,3.5,2.2,7.4-0.9,9c-8.2,4.2-18.1,11.4-22.9,21.1c-4,8-4.8,17.6,1.3,26.8
	c10.1,15.3,38.3,15.7,64.6-8.7c6.5-6,12.3-11.7,18.2-18.5c11.6-13.2,15.4-18,30.8-39.3c0.2-0.2,0.2-0.6,0.2-0.7
	c-0.1-0.3-0.3-0.3-0.8-0.4c-10.3,0.3-19.2,3.3-27.9,9.8c-2.5,1.8-6.1,1.6-7.7-0.8c-1.8-2.7-0.5-6.3,2.4-8.2
	c14-9.7,29.2-11.5,44.8-14.1c0,0,1.1,0,2-1.1c6.4-8.2,11.2-15.6,18.1-23.9c6.9-8.4,15.8-16.2,22.5-22c9.5-8.1,15.5-10.9,21.7-14.2
	c1.6-0.9-0.2-1.9-0.7-1.9c-34.5-6.5-70.3-14.9-104.5-2.2c-23.7,8.8-34.1,27.6-29.1,40.2c3.6,8.9,15.3,10.4,26.2,5
	c9.1-4.5,17.5-11.7,23.5-20.9c3.3-5.1,10.4-1.4,6.6,7.5c-10,23.5-29.1,42.2-52.5,43c-19.8,0.6-32.6-13.9-32.6-32
	c0.1-35.5,39.6-58.9,81.2-62.4c50-4.1,97.4,9.2,147.1,15.2c38.1,4.6,74.5,4.7,112.8-4.1c4.5-1,7.7,1.9,7.4,6.5
	c-0.4,6.6-5.5,13-18.1,19.8c-14.3,7.9-29.3,10.2-45,10.4c-37.9,0.3-73.1-14.4-109.6-22.4c0,1.6,0.5,3.5-0.9,4.5
	c-20.2,14.9-38.5,30-50.7,51.3c-0.4,0.5-0.2,1,0.5,0.9c10.6-0.6,20.2-0.8,30.1-1.6c1.7-0.2,1.8-0.6,1.6-1.8
	c-0.9-7.3,1.3-15.7,7.7-21.4c6.6-5.9,14.9-6.6,20.3-2.3c6.2,4.9,5.7,13.6,2.3,20.1c-3.5,6.6-9.2,10.2-14.7,11.9c0,0-1.2,0.2-1,1.3
	c0.2,1.7,7.7,5.8,8.3,6.9c0.6,1.1,0.3,2.7-0.8,3.9c-0.8,0.9-2,1.8-3.6,1.7c-1.3,0-2.1-0.5-3.7-1.4c-3.4-1.8-7.6-4.8-10.4-8.3
	c-1-1.2-1.4-1.2-3.8-1.1c-10.7,0.6-27.5,2.2-38.8,3.7c-2.7,0.3-3.2,0.9-3.7,1.8c-18.1,29.8-37.4,62-58.6,83.5
	C292.7,271.6,273.8,277.7,253.7,277.9"/>
<path class="st1" d="M472.9,37.9C237.2,37.9,46.2,103,46.2,182.7c0,79.7,191,144.8,426.7,144.8c235.7,0,426.7-65.1,426.7-144.8
	C899.6,103,708.5,37.9,472.9,37.9 M472.9,340.6c-244.3,0-442.3-70.7-442.3-158c0-87.2,198-158,442.3-158
	c244.2,0,442.2,70.7,442.2,158C915.1,269.9,717.1,340.6,472.9,340.6"/>
</svg>
