<?xml version="1.0" encoding="utf-8"?>
<!-- Generator: Adobe Illustrator 28.0.0, SVG Export Plug-In . SVG Version: 6.00 Build 0)  -->
<svg version="1.1" id="Layer_1" xmlns="http://www.w3.org/2000/svg" xmlns:xlink="http://www.w3.org/1999/xlink" x="0px" y="0px"
	 viewBox="0 0 32 40" style="enable-background:new 0 0 32 40;" xml:space="preserve">
<g>
	<path d="M15.8,8.2c3.7-4.2,7.3-5.3,10.4-3.1c4,3.2,4.2,7.4,0.6,12.4l-0.2,0.3l-0.4,0.5l-0.4,0.5c-0.5,0.6-1,1.2-1.6,1.8L23.9,21
		l-0.5,0.5l-0.5,0.5l-0.6,0.5L22,22.9l-0.6,0.5l-0.3,0.3l-0.6,0.6l-0.3,0.3l-0.7,0.6l-0.7,0.6l-0.7,0.6l-0.4,0.3L17,27.1l-0.6,0.5
		l0,0c-0.2,0.2-0.4,0.3-0.7,0.3l-0.1,0l0,0c-0.2,0-0.5-0.1-0.7-0.3l0,0l-0.6-0.5l-1.1-0.9l0,0l-0.7-0.6l-0.7-0.6L11,24.4l0,0
		l-0.8-0.7c-0.1-0.1-0.2-0.2-0.3-0.3l-0.6-0.5c-0.1-0.1-0.2-0.2-0.3-0.3l-0.6-0.5L8,21.6L7.5,21c-0.8-0.8-1.4-1.6-2-2.3L5,18.2
		l-0.4-0.5C1,12.6,1,8.3,5.1,5.1c3.2-2.2,6.8-1,10.6,3.3L15.8,8.2z M25.1,6.7c-2.2-1.6-5-0.5-8.4,3.6l-0.1,0.1
		c-0.1,0.1-0.1,0.2-0.2,0.3c-0.2,0.1-0.4,0.2-0.6,0.2l-0.1,0l0,0c-0.2,0-0.4-0.1-0.6-0.2c-0.1-0.1-0.2-0.2-0.2-0.3l0.1,0.1
		c-3.5-4.3-6.3-5.4-8.6-3.9c-3,2.4-3.1,5.8,0.1,10.1l0.3,0.5l0.4,0.5l0.4,0.5l0.4,0.5l0.2,0.2l0,0l0.5,0.5l0.2,0.2l0,0l0.5,0.5
		l0.3,0.3l0.5,0.5l0.5,0.5l0.6,0.5l0.6,0.5l0.6,0.5l0.3,0.3l0,0l0.7,0.6l0.7,0.6l0.9,0.7l0,0l0.7,0.5l0.7-0.5l0,0l0.9-0.7l0.7-0.6
		l0.8-0.7l0,0l0.8-0.7l0.6-0.5l0.6-0.5l0.5-0.5l0.5-0.5l0.3-0.3l0.5-0.5l0.2-0.2l0.5-0.5l0.2-0.2l0.4-0.5l0.4-0.5l0.4-0.5l0.3-0.5
		C28.1,12.4,28.1,9.1,25.1,6.7z"/>
</g>
</svg>
