<?xml version="1.0" encoding="utf-8"?>
<!-- Generator: Adobe Illustrator 28.0.0, SVG Export Plug-In . SVG Version: 6.00 Build 0)  -->
<svg version="1.1" id="Layer_1" xmlns="http://www.w3.org/2000/svg" xmlns:xlink="http://www.w3.org/1999/xlink" x="0px" y="0px"
	 viewBox="0 0 100 125" style="enable-background:new 0 0 100 125;" xml:space="preserve">
<style type="text/css">
	.st0{fill:#302C4D;}
	.st1{fill:#E66239;}
</style>
<g>
	<path class="st0" d="M47.6,51.4l-8.7,7.2c-0.6,0.5-0.9,1.2-0.9,1.9v9.8c0,2.4,1.9,4.3,4.3,4.3h2.5c1.3,0,2.4-1.1,2.4-2.4v-5.3
		c0-0.9,0.7-1.6,1.6-1.6h2.4c0.9,0,1.6,0.7,1.6,1.6v5.3c0,1.3,1.1,2.4,2.4,2.4h2.5c2.4,0,4.3-1.9,4.3-4.3v-9.8
		c0-0.7-0.3-1.4-0.9-1.9l-8.7-7.2C51,50.2,49,50.2,47.6,51.4z"/>
	<rect x="47.2" y="64.9" class="st1" width="5.7" height="7.8"/>
</g>
</svg>
