<?xml version="1.0" encoding="utf-8"?>
<!-- Generator: Adobe Illustrator 28.0.0, SVG Export Plug-In . SVG Version: 6.00 Build 0)  -->
<svg version="1.1" id="Layer_1" xmlns="http://www.w3.org/2000/svg" xmlns:xlink="http://www.w3.org/1999/xlink" x="0px" y="0px"
	 viewBox="0 0 100 125" style="enable-background:new 0 0 100 125;" xml:space="preserve">
<style type="text/css">
	.st0{fill:#302C4D;}
</style>
<g>
	<path class="st0" d="M47.6,51.4l-8.7,7.2C38.3,59,38,59.7,38,60.4v9.8c0,2.4,1.9,4.3,4.3,4.3h2.5c1.3,0,2.4-1.1,2.4-2.4v-5.3
		c0-0.9,0.7-1.6,1.6-1.6h2.4c0.9,0,1.6,0.7,1.6,1.6v5.3c0,1.3,1.1,2.4,2.4,2.4h2.5c2.4,0,4.3-1.9,4.3-4.3v-9.8
		c0-0.7-0.3-1.4-0.9-1.9l-8.7-7.2C51,50.2,49,50.2,47.6,51.4z M60.2,59.7c0.2,0.2,0.4,0.5,0.4,0.8v9.8c0,1.6-1.3,2.8-2.8,2.8h-2.5
		c-0.5,0-1-0.4-1-1v-5.3c0-1.7-1.4-3-3-3h-2.4c-1.7,0-3,1.4-3,3v5.3c0,0.5-0.4,1-1,1h-2.5c-1.6,0-2.8-1.3-2.8-2.8v-9.8
		c0-0.3,0.1-0.6,0.4-0.8l8.7-7.2c0.8-0.7,2.1-0.7,2.9,0L60.2,59.7L60.2,59.7z"/>
</g>
</svg>
