<?xml version="1.0" encoding="utf-8"?>
<!-- Generator: Adobe Illustrator 28.0.0, SVG Export Plug-In . SVG Version: 6.00 Build 0)  -->
<svg version="1.1" id="Layer_1" xmlns="http://www.w3.org/2000/svg" xmlns:xlink="http://www.w3.org/1999/xlink" x="0px" y="0px"
	 viewBox="0 0 24.1 24" style="enable-background:new 0 0 24.1 24;" xml:space="preserve">
<style type="text/css">
	.st0{fill:#302C4D;}
</style>
<g>
	<path class="st0" d="M9.7,0.9L1,8.1C0.4,8.5,0.1,9.2,0.1,9.9v9.8C0.1,22.1,2,24,4.4,24h2.5c1.3,0,2.4-1.1,2.4-2.4v-5.3
		c0-0.9,0.7-1.6,1.6-1.6h2.4c0.9,0,1.6,0.7,1.6,1.6v5.3c0,1.3,1.1,2.4,2.4,2.4h2.5c2.4,0,4.3-1.9,4.3-4.3V9.9c0-0.7-0.3-1.4-0.9-1.9
		l-8.7-7.2C13.1-0.3,11.1-0.3,9.7,0.9z M22.3,9.2c0.2,0.2,0.4,0.5,0.4,0.8v9.8c0,1.6-1.3,2.8-2.8,2.8h-2.5c-0.5,0-1-0.4-1-1v-5.3
		c0-1.7-1.4-3-3-3H11c-1.7,0-3,1.4-3,3v5.3c0,0.5-0.4,1-1,1H4.5c-1.6,0-2.8-1.3-2.8-2.8V10c0-0.3,0.1-0.6,0.4-0.8L10.8,2
		c0.8-0.7,2.1-0.7,2.9,0L22.3,9.2L22.3,9.2z"/>
</g>
</svg>
