<?xml version="1.0" encoding="UTF-8"?><svg id="Layer_1" xmlns="http://www.w3.org/2000/svg" xmlns:xlink="http://www.w3.org/1999/xlink" viewBox="0 0 280 185.98"><defs><style>.cls-1{fill:url(#linear-gradient);}.cls-1,.cls-2,.cls-3{stroke-width:0px;}.cls-2{fill:url(#linear-gradient-2);}.cls-3{fill:#0081fb;}</style><linearGradient id="linear-gradient" x1="69.15" y1="357.45" x2="267.15" y2="347.45" gradientTransform="translate(-6.63 436.22) scale(.97 -.97)" gradientUnits="userSpaceOnUse"><stop offset="0" stop-color="#0064e1"/><stop offset=".4" stop-color="#0064e1"/><stop offset=".83" stop-color="#0073ee"/><stop offset="1" stop-color="#0082fb"/></linearGradient><linearGradient id="linear-gradient-2" x1="48.23" y1="309" x2="48.23" y2="382" gradientTransform="translate(-6.63 436.22) scale(.97 -.97)" gradientUnits="userSpaceOnUse"><stop offset="0" stop-color="#0082fb"/><stop offset="1" stop-color="#0064e0"/></linearGradient></defs><path class="cls-3" d="m30.24,122.65c0,10.69,2.35,18.9,5.41,23.87,4.02,6.5,10.02,9.26,16.13,9.26,7.89,0,15.1-1.96,29.01-21.19,11.14-15.41,24.26-37.05,33.1-50.61l14.96-22.98c10.39-15.96,22.41-33.7,36.2-45.73,11.26-9.82,23.4-15.27,35.62-15.27,20.52,0,40.06,11.89,55.01,34.19,16.37,24.42,24.31,55.18,24.31,86.92,0,18.87-3.72,32.74-10.05,43.69-6.11,10.59-18.03,21.18-38.08,21.18v-30.2c17.17,0,21.45-15.77,21.45-33.83,0-25.73-6-54.27-19.21-74.67-9.38-14.47-21.53-23.31-34.9-23.31-14.46,0-26.1,10.91-39.17,30.35-6.95,10.33-14.09,22.92-22.1,37.13l-8.82,15.63c-17.72,31.42-22.21,38.58-31.07,50.39-15.53,20.68-28.79,28.52-46.25,28.52-20.71,0-33.81-8.97-41.92-22.48C3.25,152.48,0,138.03,0,121.57l30.24,1.08Z"/><path class="cls-1" d="m23.85,36.32C37.71,14.95,57.72,0,80.67,0c13.29,0,26.5,3.93,40.3,15.2,15.09,12.32,31.18,32.6,51.25,66.03l7.2,12c17.37,28.94,27.25,43.83,33.04,50.85,7.44,9.02,12.65,11.7,19.42,11.7,17.17,0,21.45-15.77,21.45-33.83l26.68-.84c0,18.87-3.72,32.74-10.05,43.69-6.11,10.59-18.03,21.18-38.08,21.18-12.46,0-23.51-2.71-35.72-14.23-9.39-8.84-20.36-24.55-28.8-38.67l-25.11-41.95c-12.6-21.05-24.16-36.75-30.85-43.86-7.2-7.64-16.45-16.87-31.21-16.87-11.95,0-22.09,8.38-30.58,21.21l-25.75-15.3Z"/><path class="cls-2" d="m80.19,30.41c-11.95,0-22.09,8.38-30.58,21.21-12.01,18.12-19.36,45.11-19.36,71.03,0,10.69,2.35,18.9,5.41,23.87l-25.78,16.98C3.25,152.48,0,138.03,0,121.57c0-29.94,8.22-61.15,23.85-85.25C37.71,14.95,57.72,0,80.67,0l-.49,30.41Z"/></svg>