<?xml version="1.0" encoding="utf-8"?>
<!-- Generator: Adobe Illustrator 28.0.0, SVG Export Plug-In . SVG Version: 6.00 Build 0)  -->
<svg version="1.1" id="Layer_1" xmlns="http://www.w3.org/2000/svg" xmlns:xlink="http://www.w3.org/1999/xlink" x="0px" y="0px"
	 viewBox="0 0 24 30" style="enable-background:new 0 0 24 30;" xml:space="preserve">
<style type="text/css">
	.st0{fill:#FFFFFF;}
	.st1{fill:#E66239;stroke:#FFFFFF;stroke-width:0.5;stroke-miterlimit:10;}
</style>
<g>
	<path class="st0" d="M17.8,18.7v-4.6c0-0.7-0.1-1.3-0.4-1.9c-0.2,0.2-0.4,0.3-0.7,0.4c0.2,0.5,0.3,1,0.3,1.6V19c0,0,0,0,0,0.1l0,0
		v0.1c0,0,0,0,0,0.1c0,0,0,0,0.1,0l0,0l0,0l0,0c0.1,0.1,0.2,0.1,0.3,0.1c0.5,0.1,0.9,0.6,0.9,1.1c0,0.6-0.5,1.1-1.1,1.1H6.7
		c-0.6,0-1.1-0.5-1.1-1.1c0-0.5,0.4-1,0.9-1.1c0.1,0,0.2-0.1,0.3-0.1l0,0l0,0l0,0l0,0c0,0,0,0,0.1-0.1c0,0,0,0,0-0.1V19l0,0v-4.8
		c0-2.3,1.7-4.2,4-4.7c0,0,0,0,0.1,0l0,0l0,0c0,0,0.1,0,0.1-0.1l0,0c0,0,0,0,0-0.1c0,0,0,0,0-0.1c0,0,0,0,0-0.1l0,0V8.8
		C11.3,8.3,11.6,8,12,8s0.7,0.4,0.7,0.8v0.3l0,0v0.1c0,0,0,0,0,0.1c0,0,0,0,0,0.1l0,0c0,0,0,0,0.1,0c0,0,0,0,0.1,0l0,0
		c0.3,0.1,0.5,0.1,0.8,0.2C13.9,9.4,14,9.2,14.2,9c-0.2-0.1-0.4-0.1-0.7-0.2c0-0.9-0.7-1.6-1.5-1.6s-1.5,0.7-1.5,1.6l0,0
		C8,9.4,6.2,11.6,6.2,14.2v4.6c-0.8,0.2-1.4,1-1.4,1.8c0,1.1,0.9,1.9,1.9,1.9h2.7c0.2,1.3,1.3,2.3,2.6,2.3s2.4-1,2.6-2.3h2.7
		c1.1,0,1.9-0.9,1.9-1.9C19.3,19.7,18.7,19,17.8,18.7z M12,24c-0.9,0-1.7-0.7-1.9-1.5h3.7C13.7,23.4,12.9,24,12,24z"/>
	<circle class="st1" cx="16.1" cy="10.3" r="2.2"/>
</g>
</svg>
