<?xml version="1.0" encoding="utf-8"?>
<!-- Generator: Adobe Illustrator 28.0.0, SVG Export Plug-In . SVG Version: 6.00 Build 0)  -->
<svg version="1.1" id="Layer_1" xmlns="http://www.w3.org/2000/svg" xmlns:xlink="http://www.w3.org/1999/xlink" x="0px" y="0px"
	 viewBox="0 0 551.1 555.5" style="enable-background:new 0 0 551.1 555.5;" xml:space="preserve">
<style type="text/css">
	.st0{fill:#E82127;}
</style>
<g>
	<path class="st0" d="M276.2,547.6l74.9-421.4c71.4,0,94,7.8,97.2,39.8c0,0,47.9-17.9,72.1-54.1c-94.3-43.7-189.1-45.7-189.1-45.7
		l-55.3,67.3l0.1,0l-55.3-67.3c0,0-94.8,2-189,45.7C56.1,148.1,104,166,104,166c3.3-32,25.8-39.8,96.7-39.9L276.2,547.6"/>
	<path class="st0" d="M276.2,46.7c76.2-0.6,163.5,11.8,252.8,50.7c11.9-21.5,15-31,15-31c-97.6-38.6-189.1-51.9-267.8-52.2
		C197.5,14.6,106,27.8,8.4,66.5c0,0,4.4,11.7,15,31C112.7,58.5,200,46.2,276.2,46.7L276.2,46.7"/>
</g>
</svg>
