<?xml version="1.0" encoding="utf-8"?>
<!-- Generator: Adobe Illustrator 28.0.0, SVG Export Plug-In . SVG Version: 6.00 Build 0)  -->
<svg version="1.1" id="Layer_1" xmlns="http://www.w3.org/2000/svg" xmlns:xlink="http://www.w3.org/1999/xlink" x="0px" y="0px"
	 viewBox="0 0 40 40.2" style="enable-background:new 0 0 40 40.2;" xml:space="preserve">
<style type="text/css">
	.st0{fill:#E82127;}
</style>
<g>
	<path class="st0" d="M20.3,39.8l5.6-31.5c5.3,0,7,0.6,7.3,3c0,0,3.6-1.3,5.4-4c-7-3.3-14.1-3.4-14.1-3.4l-4.1,5h0l-4.1-5
		C16.1,3.9,9,4,2,7.3c1.8,2.7,5.4,4,5.4,4c0.2-2.4,1.9-3,7.2-3L20.3,39.8"/>
	<path class="st0" d="M20.3,2.4c5.7,0,12.2,0.9,18.9,3.8c0.9-1.6,1.1-2.3,1.1-2.3C33,1,26.1,0,20.3,0c-5.9,0-12.7,1-20,3.9
		c0,0,0.3,0.9,1.1,2.3C8,3.3,14.6,2.4,20.3,2.4L20.3,2.4"/>
</g>
</svg>
